<svg width="51" height="386" viewBox="0 0 51 386" fill="none" xmlns="http://www.w3.org/2000/svg">
<path d="M5.66539 379.58L3 6.57446L45.6115 51.4884L47.6484 336.549L5.66539 379.58Z" fill="#101315" stroke="#00D8E5" stroke-width="5"/>
<path d="M12.7063 207.72L36.6808 233.41L36.7839 247.826L12.81 222.238L12.7063 207.72Z" fill="#00D8E5" stroke="#85EBD9"/>
<path d="M12.9135 236.72L36.8881 262.41L36.9911 276.826L13.0173 251.238L12.9135 236.72Z" fill="#00D8E5" stroke="#85EBD9"/>
<path d="M13.1209 265.72L37.0955 291.411L37.1985 305.826L13.2247 280.238L13.1209 265.72Z" fill="#00D8E5" stroke="#85EBD9"/>
<path d="M13.3423 296.721L37.3168 322.411L37.4198 336.827L13.446 311.239L13.3423 296.721Z" fill="#00D8E5" stroke="#85EBD9"/>
<path d="M11.4487 31.7173L35.4233 57.4076L35.5263 71.8233L11.5524 46.2352L11.4487 31.7173Z" fill="#00D8E5" stroke="#85EBD9"/>
<path d="M11.656 60.7177L35.6306 86.408L35.7336 100.824L11.7597 75.2356L11.656 60.7177Z" fill="#00D8E5" stroke="#85EBD9"/>
<path d="M11.8633 89.718L35.8378 115.408L35.9408 129.824L11.967 104.236L11.8633 89.718Z" fill="#00D8E5" stroke="#85EBD9"/>
<path d="M12.0846 120.718L36.0591 146.409L36.1622 160.824L12.1883 135.236L12.0846 120.718Z" fill="#00D8E5" stroke="#85EBD9"/>
<path d="M12.292 149.719L36.2665 175.409L36.3696 189.825L12.3957 164.237L12.292 149.719Z" fill="#00D8E5" stroke="#85EBD9"/>
<path d="M12.4992 178.719L36.4738 204.41L36.5768 218.825L12.603 193.237L12.4992 178.719Z" fill="#00D8E5" stroke="#85EBD9"/>
</svg>
