<svg width="30" height="30" viewBox="0 0 30 30" fill="none" xmlns="http://www.w3.org/2000/svg">
<g clip-path="url(#clip0_246_467)">
<path d="M14.949 0C7.866 0 7.78991 2.74936 7.78991 3.31527C7.78991 4.17382 7.78991 6.75 7.78991 6.75H15.0854V7.78118C15.0854 7.78118 7.48936 7.78118 4.89218 7.78118C2.72427 7.78118 0 9.09927 0 14.9403C0 20.3056 2.12509 22.3805 4.26982 22.3805C4.90664 22.3805 6.81818 22.3805 6.81818 22.3805C6.81818 22.3805 6.81818 19.7174 6.81818 18.801C6.81818 17.3035 7.56027 14.5312 11.0198 14.5312C15.3589 14.5312 16.4665 14.5312 18.2555 14.5312C19.3197 14.5312 22.3208 14.0686 22.3208 10.6023C22.3208 6.93355 22.3208 5.72318 22.3208 3.99709C22.3211 3.13718 22.1741 0 14.949 0ZM10.9263 2.30973C11.6523 2.30973 12.2389 2.89609 12.2389 3.62236C12.2389 4.34809 11.6523 4.935 10.9263 4.935C10.2003 4.935 9.61364 4.34836 9.61364 3.62236C9.61364 2.89609 10.2003 2.30973 10.9263 2.30973Z" fill="url(#paint0_linear_246_467)"/>
<path d="M15.051 29.9999C22.1307 29.9999 22.2188 27.1987 22.2188 26.6847C22.2188 25.8261 22.2188 23.2499 22.2188 23.2499H14.9146V22.2187C14.9146 22.2187 22.5597 22.2187 25.1078 22.2187C27.2921 22.2187 30 20.8677 30 15.0597C30 8.69911 27.126 7.61938 25.7302 7.61938C25.0931 7.61938 23.1818 7.61938 23.1818 7.61938C23.1818 7.61938 23.1818 10.4056 23.1818 11.1989C23.1818 12.6965 22.4643 15.4687 18.9802 15.4687C14.6411 15.4687 13.6685 15.4687 11.7442 15.4687C10.6827 15.4687 7.67889 15.9858 7.67889 19.3977C7.67889 23.3454 7.67889 24.379 7.67889 26.0028C7.67889 27.4292 8.55053 29.9999 15.051 29.9999ZM19.074 27.6902C18.348 27.6902 17.7613 27.1036 17.7613 26.3776C17.7613 25.6516 18.3477 25.0649 19.074 25.0649C19.7997 25.0649 20.3866 25.6516 20.3866 26.3776C20.3866 27.1036 19.7997 27.6902 19.074 27.6902Z" fill="url(#paint1_linear_246_467)"/>
</g>
<defs>
<linearGradient id="paint0_linear_246_467" x1="2.81141" y1="2.67987" x2="17.7235" y2="17.6418" gradientUnits="userSpaceOnUse">
<stop stop-color="#387EB8"/>
<stop offset="1" stop-color="#366994"/>
</linearGradient>
<linearGradient id="paint1_linear_246_467" x1="11.8737" y1="12.2391" x2="27.8616" y2="27.5563" gradientUnits="userSpaceOnUse">
<stop stop-color="#FFE052"/>
<stop offset="1" stop-color="#FFC331"/>
</linearGradient>
<clipPath id="clip0_246_467">
<rect width="30" height="30" fill="white"/>
</clipPath>
</defs>
</svg>
