<svg width="30" height="33" viewBox="0 0 30 33" fill="none" xmlns="http://www.w3.org/2000/svg">
<g clip-path="url(#clip0_245_460)">
<path fill-rule="evenodd" clip-rule="evenodd" d="M14.1339 0.225006C14.67 -0.074351 15.33 -0.074351 15.8652 0.225006C18.5139 1.7045 26.4844 6.15793 29.1339 7.63743C29.6699 7.936 29.9999 8.48914 29.9999 9.08786C29.9999 12.0469 29.9999 20.9529 29.9999 23.9119C29.9999 24.5106 29.6699 25.0638 29.1339 25.3631C26.4852 26.8426 18.5147 31.2961 15.8652 32.7756C15.3292 33.0749 14.6692 33.0749 14.1339 32.7756C11.4852 31.2961 3.51473 26.8426 0.865261 25.3631C0.329999 25.0638 0 24.5114 0 23.9127C0 20.9537 0 12.0476 0 9.08864C0 8.48993 0.329999 7.93679 0.866051 7.63743C3.51394 6.15793 11.486 1.7045 14.1339 0.225006V0.225006Z" fill="#004482"/>
<path fill-rule="evenodd" clip-rule="evenodd" d="M0.239999 24.6748C0.0299999 24.3951 0 24.1295 0 23.772C0 20.8303 0 11.9753 0 9.03279C0 8.43721 0.32921 7.88722 0.863682 7.59022C3.50289 6.11936 11.4466 1.69186 14.0858 0.220221C14.6202 -0.0775644 15.3442 -0.0712787 15.8786 0.226507C18.5179 1.69736 26.4347 6.08715 29.0739 7.558C29.287 7.67743 29.4497 7.82122 29.5949 8.01057L0.239999 24.6748Z" fill="#659AD2"/>
<path fill-rule="evenodd" clip-rule="evenodd" d="M15 5.50024C21.1002 5.50024 26.0526 10.429 26.0526 16.5002C26.0526 22.5714 21.1002 27.5002 15 27.5002C8.89974 27.5002 3.94739 22.5714 3.94739 16.5002C3.94739 10.429 8.89974 5.50024 15 5.50024V5.50024ZM15 11.0002C18.0497 11.0002 20.5263 13.4642 20.5263 16.5002C20.5263 19.5354 18.0497 22.0002 15 22.0002C11.9503 22.0002 9.47369 19.5354 9.47369 16.5002C9.47369 13.4642 11.9495 11.0002 15 11.0002V11.0002Z" fill="white"/>
<path fill-rule="evenodd" clip-rule="evenodd" d="M29.5934 8.01831C30.0007 8.39781 29.9928 8.96981 29.9928 9.42002C29.9928 12.4018 29.9676 20.8828 29.9999 23.8646C30.0031 24.1757 29.8997 24.5034 29.7449 24.7501L14.6786 16.5001L29.5934 8.01831Z" fill="#00599C"/>
</g>
<defs>
<clipPath id="clip0_245_460">
<rect width="30" height="33" fill="white"/>
</clipPath>
</defs>
</svg>
