<svg width="105" height="45" viewBox="0 0 105 45" fill="none" xmlns="http://www.w3.org/2000/svg"><path fill-rule="evenodd" clip-rule="evenodd" d="M87.85 38.0767C87.85 39.1267 88.9 40.1767 89.95 40.1767H90.65V42.9767H77.7V39.1267C74.8999 42.2767 71.3999 44.0267 67.5499 44.0267C59.4999 44.0267 53.1999 36.6767 53.1999 27.2267C53.1999 17.7767 59.4999 10.4267 67.5499 10.4267C71.3999 10.4267 75.2499 12.5267 77.7 15.3267V5.17671C77.7 4.12671 76.65 3.07671 75.6 3.07671H74.5499V0.626709H87.85V38.0767ZM62.6499 27.5767C62.6499 33.8767 65.7999 39.1267 69.6499 39.1267C73.5 39.1267 76.6499 33.8767 76.6499 27.5767C76.6499 21.2767 73.5 16.0267 69.6499 16.0267C65.7999 16.0267 62.6499 21.2767 62.6499 27.5767ZM13.3 14.9767C13.3 14.9767 16.8 11.1267 23.45 11.1267C27.3 11.1267 29.75 13.9267 30.1 17.0767C30.1 20.2267 27.65 22.3267 24.5 22.3267C21.35 22.3267 18.9 19.8767 18.9 16.7267V15.3267C18.9 14.9767 13.3 16.7267 13.3 19.5267V38.0767C13.3 39.1267 14.35 40.1767 15.4 40.1767H16.1V42.6267H0V40.1767H0.7C1.75 40.1767 2.8 39.1267 2.8 38.0767V16.0267C2.8 14.9767 2.1 13.9267 0.7 13.9267H0V11.1267H13.3V14.9767ZM51.8 40.1767C50.75 40.1767 49.7 39.1267 49.7 38.0767V19.1767C49.7 14.2767 47.25 11.1267 42.7 11.1267H33.25V12.8767H35.35C38.5 12.8767 39.55 15.3267 39.55 19.1767C38.8076 19.6717 36.8401 20.5166 32.9053 22.2066L32.9049 22.2067C31.275 22.9067 29.3077 23.7516 26.95 24.7767C21.7 27.2267 21.35 31.0767 21.35 34.5767C21.35 39.4767 24.85 43.3267 29.4 43.3267C35.35 43.3267 39.55 37.7267 39.55 37.7267V42.6267H53.2V40.1767H51.8ZM38.85 34.2267C38.85 34.2267 36.75 36.6767 33.95 36.6767C31.5 36.6767 30.1 34.9267 30.1 32.8267C30.1 29.9997 31.9268 28.771 35.7649 26.1898C36.6785 25.5753 37.706 24.8842 38.85 24.0767V34.2267ZM99.8641 42.855C102.701 42.855 105 40.5556 105 37.7191C105 34.8827 102.701 32.5832 99.8641 32.5832C97.0276 32.5832 94.7282 34.8827 94.7282 37.7191C94.7282 40.5556 97.0276 42.855 99.8641 42.855Z" fill="white"></path></svg>
