<svg width="56" height="57" viewBox="0 0 56 57" fill="none" xmlns="http://www.w3.org/2000/svg">
<g clip-path="url(#clip0_5_29)">
<path d="M27.9999 0.515528C23.7495 0.502332 19.5548 1.48211 15.7499 3.37678C15.6471 3.42849 15.5555 3.49994 15.4802 3.58707C15.405 3.6742 15.3477 3.77529 15.3115 3.88457C15.2754 3.99386 15.2611 4.10919 15.2695 4.22399C15.2779 4.33879 15.3089 4.45081 15.3606 4.55365C15.4123 4.65649 15.4837 4.74814 15.5709 4.82337C15.658 4.89859 15.7591 4.95592 15.8684 4.99208C15.9776 5.02824 16.093 5.04251 16.2078 5.0341C16.3226 5.02568 16.4346 4.99474 16.5374 4.94303C20.0971 3.16872 24.0226 2.25179 27.9999 2.26553C32.663 2.26771 37.238 3.53603 41.2366 5.93513C45.2352 8.33422 48.5073 11.7741 50.7037 15.8875C52.9001 20.0009 53.9383 24.6335 53.7076 29.2909C53.4769 33.9483 51.9859 38.4556 49.3937 42.3318C49.3292 42.4271 49.2842 42.5342 49.2611 42.647C49.2381 42.7597 49.2375 42.8759 49.2595 42.9889C49.2814 43.1019 49.3254 43.2094 49.389 43.3054C49.4526 43.4013 49.5345 43.4838 49.6299 43.548C49.7763 43.6422 49.946 43.6937 50.1199 43.6968C50.2633 43.697 50.4045 43.662 50.5311 43.5949C50.6577 43.5277 50.7659 43.4305 50.8462 43.3118C53.6164 39.1722 55.2104 34.3579 55.4578 29.3831C55.7053 24.4082 54.597 19.4596 52.2513 15.0655C49.9055 10.6714 46.4104 6.99689 42.1392 4.43429C37.868 1.8717 32.9809 0.517234 27.9999 0.515528ZM47.3987 44.9305C46.6334 45.814 45.8059 46.6415 44.9224 47.4068C44.7486 47.5601 44.6427 47.7761 44.6279 48.0074C44.6131 48.2387 44.6907 48.4664 44.8437 48.6405C44.9257 48.7339 45.0266 48.8087 45.1398 48.86C45.2529 48.9113 45.3757 48.9379 45.4999 48.938C45.7115 48.9401 45.9167 48.8655 46.0774 48.728C47.0098 47.9123 47.8867 47.0353 48.7024 46.103C48.7783 46.0163 48.8363 45.9154 48.8732 45.8063C48.91 45.6971 48.925 45.5817 48.9173 45.4667C48.9096 45.3518 48.8793 45.2395 48.8282 45.1362C48.777 45.0329 48.7061 44.9407 48.6193 44.8649C48.5326 44.7891 48.4317 44.7311 48.3226 44.6942C48.2134 44.6573 48.098 44.6423 47.983 44.65C47.8681 44.6578 47.7557 44.688 47.6525 44.7392C47.5492 44.7903 47.457 44.8613 47.3812 44.948L47.3987 44.9305ZM42.6562 49.183C37.5134 52.7427 31.2508 54.309 25.0377 53.5895C18.8246 52.8699 13.0857 49.9136 8.89269 45.2726C4.69964 40.6317 2.33901 34.6233 2.25155 28.3693C2.1641 22.1152 4.3558 16.0432 8.41744 11.2868C8.56829 11.1104 8.64289 10.8813 8.62484 10.65C8.60679 10.4186 8.49756 10.2039 8.32119 10.053C8.14483 9.90219 7.91576 9.82758 7.68439 9.84563C7.45301 9.86368 7.23829 9.97291 7.08744 10.1493C2.75189 15.2293 0.413063 21.7134 0.507514 28.3913C0.601965 35.0692 3.12324 41.4846 7.60073 46.4399C12.0782 51.3952 18.2059 54.5519 24.8401 55.3208C31.4743 56.0896 38.1616 54.418 43.6537 50.618C43.8437 50.4855 43.9735 50.2831 44.0145 50.0551C44.0555 49.8271 44.0044 49.5922 43.8724 49.4018C43.74 49.2117 43.5375 49.082 43.3095 49.041C43.0815 49 42.8466 49.0511 42.6562 49.183ZM9.92244 9.34428C10.1374 9.33917 10.343 9.25507 10.4999 9.10803C10.8587 8.77553 11.2174 8.46053 11.5937 8.15428C11.6995 8.08893 11.7902 8.00177 11.8597 7.8986C11.9292 7.79543 11.9759 7.67863 11.9967 7.55599C12.0175 7.43335 12.0119 7.30769 11.9803 7.18738C11.9487 7.06707 11.8918 6.95489 11.8134 6.85831C11.735 6.76173 11.6369 6.68298 11.5257 6.6273C11.4144 6.57162 11.2926 6.5403 11.1683 6.53542C11.044 6.53054 10.9201 6.55222 10.8049 6.59902C10.6896 6.64581 10.5857 6.71664 10.4999 6.80678C10.0974 7.13053 9.71244 7.47178 9.32744 7.82178C9.19633 7.94094 9.10448 8.09709 9.06405 8.26958C9.02361 8.44208 9.03648 8.62278 9.10097 8.7878C9.16546 8.95281 9.27852 9.09437 9.42521 9.19373C9.57189 9.2931 9.74528 9.34559 9.92244 9.34428ZM13.0724 6.84178C13.247 6.84217 13.4176 6.79036 13.5624 6.69303L13.7812 6.54428C13.8771 6.4805 13.9596 6.39846 14.0238 6.30282C14.0881 6.20719 14.1328 6.09983 14.1556 5.98689C14.1783 5.87395 14.1786 5.75764 14.1564 5.64459C14.1342 5.53154 14.09 5.42397 14.0262 5.32803C13.9624 5.23208 13.8804 5.14963 13.7847 5.0854C13.6891 5.02116 13.5817 4.97638 13.4688 4.95363C13.3559 4.93088 13.2396 4.9306 13.1265 4.9528C13.0135 4.975 12.9059 5.01925 12.8099 5.08303L12.5737 5.25803C12.3823 5.38915 12.2507 5.59095 12.2081 5.81904C12.1654 6.04713 12.2151 6.28282 12.3462 6.47428C12.4284 6.58979 12.5375 6.68359 12.664 6.74761C12.7905 6.81163 12.9307 6.84395 13.0724 6.84178Z" fill="#93D900" stroke="#93D900"/>
<path d="M46.3751 16.3093C46.38 16.2657 46.38 16.2216 46.3751 16.178C46.3792 16.1168 46.3792 16.0555 46.3751 15.9943C46.3414 15.9231 46.3004 15.8556 46.2526 15.793C46.2381 15.7648 46.2205 15.7384 46.2001 15.7143C46.1325 15.6445 46.0523 15.588 45.9638 15.548C45.8947 15.5174 45.8206 15.4996 45.7451 15.4955H45.6313H10.5001H10.3863C10.3108 15.4996 10.2367 15.5174 10.1676 15.548C10.079 15.588 9.99886 15.6445 9.9313 15.7143C9.91083 15.7384 9.89322 15.7648 9.8788 15.793C9.83101 15.8556 9.78995 15.9231 9.7563 15.9943C9.75215 16.0555 9.75215 16.1168 9.7563 16.178C9.75132 16.2216 9.75132 16.2657 9.7563 16.3093V39.7243C9.76671 39.7893 9.78132 39.8536 9.80005 39.9168C9.79287 39.9661 9.79287 40.0162 9.80005 40.0655C9.81447 40.0937 9.83208 40.1201 9.85255 40.1443C9.89421 40.2169 9.94413 40.2844 10.0013 40.3455L10.0888 40.4068C10.147 40.4469 10.2084 40.482 10.2726 40.5118C10.3305 40.5208 10.3896 40.5208 10.4476 40.5118C10.4941 40.5159 10.541 40.5159 10.5876 40.5118H45.5001C45.5466 40.5159 45.5935 40.5159 45.6401 40.5118C45.698 40.5208 45.7571 40.5208 45.8151 40.5118C45.8792 40.482 45.9406 40.4469 45.9988 40.4068L46.0863 40.3455C46.1435 40.2844 46.1934 40.2169 46.2351 40.1443C46.2555 40.1201 46.2731 40.0937 46.2876 40.0655C46.2947 40.0162 46.2947 39.9661 46.2876 39.9168C46.2916 39.8527 46.2916 39.7884 46.2876 39.7243V16.3093H46.3751ZM11.3751 18.313L20.8426 27.133L11.3751 37.4493V18.313ZM32.2526 27.3955C31.0959 28.4674 29.577 29.063 28.0001 29.063C26.4231 29.063 24.9042 28.4674 23.7476 27.3955L12.7313 17.1843H43.2688L32.2526 27.3955ZM22.1288 28.2705L22.5576 28.673C24.0388 30.0432 25.9823 30.8042 28.0001 30.8042C30.0178 30.8042 31.9613 30.0432 33.4426 28.673L33.8713 28.2793L43.4963 38.7793H12.4863L22.1288 28.2705ZM35.1576 27.133L44.6251 18.313V37.4493L35.1576 27.133Z" fill="#93D900" stroke="#93D900"/>
</g>
<defs>
<clipPath id="clip0_5_29">
<rect width="56" height="56" fill="white" transform="translate(0 0.00802612)"/>
</clipPath>
</defs>
</svg>
