<svg width="56" height="56" viewBox="0 0 56 56" fill="none" xmlns="http://www.w3.org/2000/svg">
<path d="M33.8333 55.678C33.5239 55.678 33.2272 55.5551 33.0084 55.3363C32.7896 55.1175 32.6667 54.8207 32.6667 54.5113V45.8313C32.6667 43.7337 32.3983 42.245 31.8197 41.153C31.7365 40.9952 31.6907 40.8204 31.6857 40.6421C31.6807 40.4637 31.7166 40.2866 31.7908 40.1244C31.8649 39.9621 31.9753 39.819 32.1133 39.7061C32.2514 39.5932 32.4136 39.5134 32.5873 39.473C39.5033 37.877 44.3333 32.816 44.3333 27.1647C44.3333 24.3647 43.183 21.693 41.0083 19.4367C40.8445 19.2672 40.7359 19.0521 40.6968 18.8197C40.6576 18.5873 40.6898 18.3484 40.789 18.1347C41.657 16.2633 41.4727 13.7153 40.4437 12.187C39.0833 12.719 37.317 13.832 36.169 15.1947C36.0155 15.3786 35.8088 15.5103 35.5772 15.5718C35.3457 15.6332 35.1008 15.6213 34.8763 15.5377C30.4335 13.9322 25.5689 13.9322 21.126 15.5377C20.9016 15.6202 20.6572 15.6318 20.426 15.5708C20.1948 15.5099 19.9879 15.3794 19.8333 15.197C18.6853 13.8343 16.919 12.7213 15.5563 12.1893C14.5273 13.7177 14.343 16.2657 15.211 18.137C15.3104 18.3504 15.3426 18.5889 15.3034 18.8209C15.2643 19.053 15.1555 19.2677 14.9917 19.4367C12.817 21.693 11.6667 24.367 11.6667 27.1647C11.6667 32.5477 16.0137 37.3963 22.484 39.228C22.7286 39.2975 22.9439 39.445 23.0972 39.6479C23.2505 39.8509 23.3334 40.0983 23.3333 40.3527V41.167C23.3333 42.6277 22.7477 43.4513 22.2553 43.8877C21.2007 44.814 19.838 44.674 19.6887 44.6577H19.6653C17.7427 44.6577 16.296 43.5867 14.8983 42.5507C14.196 42.0303 13.4843 41.5007 12.656 41.062C12.8357 41.3047 13.013 41.5543 13.1927 41.804C14.9427 44.2377 16.9237 46.998 19.8357 46.998H22.169C22.4784 46.998 22.7752 47.1209 22.994 47.3397C23.2127 47.5585 23.3357 47.8552 23.3357 48.1647V54.5113C23.3356 54.6859 23.2964 54.8582 23.2208 55.0156C23.1453 55.173 23.0354 55.3114 22.8993 55.4207C22.7631 55.53 22.6042 55.6073 22.4342 55.647C22.2642 55.6867 22.0875 55.6877 21.917 55.65C9.21667 52.8313 0 41.3443 0 28.3313C0 12.8917 12.5603 0.331329 28 0.331329C43.4397 0.331329 56 12.8917 56 28.3313C56 41.342 46.7833 52.8313 34.0853 55.65C34.0026 55.6685 33.9181 55.6779 33.8333 55.678ZM34.4353 41.3957C34.818 42.602 35 44.0487 35 45.8313V53.0133C45.899 49.9193 53.6667 39.767 53.6667 28.3313C53.6667 14.1797 42.1517 2.66466 28 2.66466C13.8483 2.66466 2.33333 14.1797 2.33333 28.3313C2.33333 39.767 10.101 49.9193 21 53.0133V49.3313H19.8333C15.7267 49.3313 13.2697 45.913 11.2957 43.1643C10.178 41.608 9.02067 39.998 8.16667 39.998C7.85725 39.998 7.5605 39.8751 7.34171 39.6563C7.12292 39.4375 7 39.1407 7 38.8313C7 38.5219 7.12292 38.2252 7.34171 38.0064C7.5605 37.7876 7.85725 37.6647 8.16667 37.6647C12.2267 37.6647 14.4783 39.333 16.2867 40.6747C17.5373 41.601 18.522 42.3313 19.8333 42.3313C19.964 42.3383 20.447 42.3733 20.7177 42.1307C20.9393 41.93 20.9953 41.531 21 41.216C13.986 38.913 9.33333 33.3573 9.33333 27.167C9.33333 23.9843 10.528 20.9603 12.796 18.3797C11.795 15.4793 12.4133 11.9373 14.3407 10.0077C14.4841 9.86218 14.6636 9.75743 14.8608 9.70413C15.058 9.65083 15.2658 9.6509 15.463 9.70433C17.0217 10.1173 19.3363 11.3283 21.0653 13.09C25.5725 11.6411 30.4205 11.6411 34.9277 13.09C36.6567 11.3283 38.9713 10.1173 40.53 9.70433C40.7272 9.65065 40.9351 9.65046 41.1323 9.70377C41.3296 9.75709 41.5091 9.86198 41.6523 10.0077C43.582 11.9373 44.198 15.4793 43.197 18.3773C45.472 20.9603 46.6667 23.9843 46.6667 27.1647C46.6667 33.53 41.7037 39.228 34.4353 41.3957Z" fill="#8ED000"/>
</svg>
