<svg width="56" height="56" viewBox="0 0 56 56" fill="none" xmlns="http://www.w3.org/2000/svg">
<path d="M27.8544 53.685C42.0516 53.685 53.6016 42.135 53.6016 27.9373C53.6016 13.7396 42.0516 2.19016 27.8544 2.19016C13.6568 2.19016 2.1062 13.7402 2.1062 27.9378C2.1062 42.1355 13.6568 53.685 27.8544 53.685ZM27.8544 3.31015C41.4339 3.31015 52.4816 14.3578 52.4816 27.9378C52.4816 41.5178 41.4339 52.565 27.8544 52.565C14.2744 52.565 3.2262 41.5173 3.2262 27.9373C3.2262 14.3573 14.2744 3.31015 27.8544 3.31015Z" fill="#93D900" stroke="#93D900" stroke-width="2"/>
<path d="M21.0436 22.2723H15.9392C15.6301 22.2723 15.3792 22.5232 15.3792 22.8323V39.3221C15.3792 39.6312 15.6301 39.8821 15.9392 39.8821H21.0436C21.3528 39.8821 21.6036 39.6312 21.6036 39.3221V22.8323C21.6036 22.5232 21.3528 22.2723 21.0436 22.2723ZM20.4836 38.7621H16.4992V23.3923H20.4836V38.7621ZM24.3073 39.8821H29.2028C29.512 39.8821 29.7628 39.6312 29.7628 39.3221V30.6662C29.7628 29.2342 30.2052 27.5274 32.3125 27.5274C32.8613 27.5274 34.5318 27.5274 34.5318 30.6662V39.3226C34.5318 39.6318 34.7827 39.8826 35.0918 39.8826H40.171C40.4801 39.8826 40.731 39.6318 40.731 39.3226V28.8814C40.731 24.4278 38.2788 21.7689 34.1717 21.7689C32.0633 21.7689 30.6303 22.666 29.7628 23.483V22.8329C29.7628 22.5238 29.512 22.2729 29.2028 22.2729H24.3073C23.9982 22.2729 23.7473 22.5238 23.7473 22.8329V39.3226C23.7473 39.6318 23.9982 39.8821 24.3073 39.8821ZM24.8673 23.3923H28.6428V25.0527C28.6428 25.3092 28.817 25.5326 29.0656 25.5954C29.3154 25.6598 29.5741 25.5444 29.6956 25.3187C29.7085 25.2946 31.0452 22.8883 34.1717 22.8883C37.6286 22.8883 39.611 25.0723 39.611 28.8809V38.7615H35.6518V30.6662C35.6518 26.9606 33.5596 26.4074 32.3125 26.4074C30.0143 26.4074 28.6428 27.9994 28.6428 30.6662V38.7626H24.8673V23.3923ZM18.4671 21.233C20.44 21.233 22.0455 19.6168 22.0455 17.6305C22.0455 15.6442 20.4405 14.028 18.4671 14.028C16.4936 14.028 14.8887 15.6442 14.8887 17.6305C14.8887 19.6168 16.4936 21.233 18.4671 21.233ZM18.4671 15.148C19.8223 15.148 20.9255 16.2613 20.9255 17.6305C20.9255 18.9997 19.8228 20.113 18.4671 20.113C17.1113 20.113 16.0087 18.9991 16.0087 17.6305C16.0087 16.2618 17.1113 15.148 18.4671 15.148Z" fill="#93D900" stroke="#93D900"/>
</svg>
